<svg xmlns="http://www.w3.org/2000/svg" viewBox="0 0 584.49 74.8"><g id="Layer_2" data-name="Layer 2"><g id="Layer_1-2" data-name="Layer 1"><path d="M11.4,15H39.9a41.62,41.62,0,0,1,19.6,4.45,32.45,32.45,0,0,1,13.2,12.4A35,35,0,0,1,77.4,50a35,35,0,0,1-4.7,18.15,32.45,32.45,0,0,1-13.2,12.4A41.62,41.62,0,0,1,39.9,85H11.4ZM39.5,78.6A34,34,0,0,0,55.6,75a26.47,26.47,0,0,0,10.7-10.1A28.73,28.73,0,0,0,70.1,50a28.73,28.73,0,0,0-3.8-14.85,26.47,26.47,0,0,0-10.7-10.1A34,34,0,0,0,39.5,21.4H18.8V78.6Z" transform="translate(-11.4 -10.8)"/><path d="M126.7,37.15q5.49,5.15,5.5,15.25V85h-6.8V76.8a16.28,16.28,0,0,1-7.05,6.4,24.74,24.74,0,0,1-11,2.3q-8.8,0-14-4.2a13.55,13.55,0,0,1-5.2-11.1A13.42,13.42,0,0,1,93,59.4q4.85-4.09,15.45-4.1h16.7V52.1q0-6.8-3.8-10.35T110.2,38.2a28.16,28.16,0,0,0-9.6,1.65,24.22,24.22,0,0,0-7.9,4.55l-3.2-5.3a28.14,28.14,0,0,1,9.6-5.25A37.42,37.42,0,0,1,110.9,32Q121.19,32,126.7,37.15Zm-8,40a16.43,16.43,0,0,0,6.4-8V60.6H108.6q-13.5,0-13.5,9.4a8.58,8.58,0,0,0,3.5,7.25q3.5,2.66,9.8,2.65A18.75,18.75,0,0,0,118.7,77.15Z" transform="translate(-11.4 -10.8)"/><path d="M199.7,10.8V85h-6.8V74.6a21.75,21.75,0,0,1-8.45,8.1,24.75,24.75,0,0,1-11.85,2.8,26.65,26.65,0,0,1-13.4-3.4,24.26,24.26,0,0,1-9.4-9.5,28,28,0,0,1-3.4-13.9,28,28,0,0,1,3.4-13.9,23.87,23.87,0,0,1,9.4-9.45A27,27,0,0,1,172.6,32a24.87,24.87,0,0,1,11.55,2.65,21.94,21.94,0,0,1,8.45,7.75V10.8ZM183.15,76.65a18.17,18.17,0,0,0,7-7.25,22.07,22.07,0,0,0,2.55-10.7A22.07,22.07,0,0,0,190.15,48a18.17,18.17,0,0,0-7-7.25,20.88,20.88,0,0,0-20,0,18.11,18.11,0,0,0-7,7.25,22.07,22.07,0,0,0-2.55,10.7,22.07,22.07,0,0,0,2.55,10.7,18.11,18.11,0,0,0,7,7.25,20.88,20.88,0,0,0,20,0Z" transform="translate(-11.4 -10.8)"/><path d="M217.4,83a21.58,21.58,0,0,1-8.3-7.4l4.4-5q5.79,8.59,15.1,8.6,13,0,13-15.4V21.4H216V15h32.9V63.5q0,11-5.15,16.55T228.5,85.6A24.13,24.13,0,0,1,217.4,83Z" transform="translate(-11.4 -10.8)"/><path d="M277.4,82.05a25.09,25.09,0,0,1-9.6-9.55,27.18,27.18,0,0,1-3.5-13.8,27.18,27.18,0,0,1,3.5-13.8,24.76,24.76,0,0,1,9.6-9.5,29.3,29.3,0,0,1,27.4,0,24.5,24.5,0,0,1,9.55,9.5,27.56,27.56,0,0,1,3.45,13.8,27.56,27.56,0,0,1-3.45,13.8,24.83,24.83,0,0,1-9.55,9.55,28.93,28.93,0,0,1-27.4,0Zm23.75-5.4a17.86,17.86,0,0,0,7-7.25,22.5,22.5,0,0,0,2.5-10.7A22.5,22.5,0,0,0,308.1,48a17.86,17.86,0,0,0-7-7.25,21.08,21.08,0,0,0-20.1,0,18.11,18.11,0,0,0-7,7.25,22.07,22.07,0,0,0-2.55,10.7,22.07,22.07,0,0,0,2.55,10.7,18.11,18.11,0,0,0,7,7.25,21.08,21.08,0,0,0,20.1,0Z" transform="translate(-11.4 -10.8)"/><path d="M351.8,58.6,339.4,70V85h-7.1V10.8h7.1V61.1l31.4-28.7h8.8L357.1,53.9,381.7,85H373Z" transform="translate(-11.4 -10.8)"/><path d="M436.1,60.9h-44a18.8,18.8,0,0,0,6.3,13.25q5.7,5.05,14.4,5a22.68,22.68,0,0,0,9-1.75,19.69,19.69,0,0,0,7.1-5.15l4,4.6a22.61,22.61,0,0,1-8.75,6.4,29.53,29.53,0,0,1-11.55,2.2,29.18,29.18,0,0,1-14.35-3.45,24.81,24.81,0,0,1-9.75-9.55A27.18,27.18,0,0,1,385,58.7a28.14,28.14,0,0,1,3.35-13.8,24.23,24.23,0,0,1,9.2-9.5,27,27,0,0,1,26.25,0,24.19,24.19,0,0,1,9.1,9.45,28.45,28.45,0,0,1,3.3,13.85ZM398,43A19,19,0,0,0,392.1,55.6h37.3A19.07,19.07,0,0,0,423.55,43,19.32,19.32,0,0,0,398,43Z" transform="translate(-11.4 -10.8)"/><path d="M452.55,83.65A26.24,26.24,0,0,1,443.4,79l3.2-5.6a26.94,26.94,0,0,0,8.3,4.25,33,33,0,0,0,10.4,1.65q7.2,0,10.65-2.25a7.16,7.16,0,0,0,3.45-6.35,5.74,5.74,0,0,0-1.9-4.55,12.72,12.72,0,0,0-4.8-2.5A67.33,67.33,0,0,0,465,62a88.8,88.8,0,0,1-10.3-2.45,15.09,15.09,0,0,1-6.65-4.25c-1.84-2-2.75-4.77-2.75-8.3a13,13,0,0,1,5.5-10.8q5.49-4.2,15.3-4.2a39.71,39.71,0,0,1,10.2,1.35,28,28,0,0,1,8.4,3.55l-3.1,5.7a26.56,26.56,0,0,0-15.5-4.5q-6.81,0-10.25,2.4a7.35,7.35,0,0,0-3.45,6.3,6.22,6.22,0,0,0,2,4.8,12,12,0,0,0,4.85,2.65,77.17,77.17,0,0,0,8,1.75,92.41,92.41,0,0,1,10.1,2.4,14.89,14.89,0,0,1,6.5,4.1q2.7,2.9,2.7,8a12.73,12.73,0,0,1-5.75,11q-5.76,4-15.95,4A40.47,40.47,0,0,1,452.55,83.65Z" transform="translate(-11.4 -10.8)"/><path d="M496.55,83.9A5.38,5.38,0,0,1,495,80a5.2,5.2,0,0,1,1.55-3.85,5.11,5.11,0,0,1,3.75-1.55,5.31,5.31,0,0,1,3.8,1.55A5.17,5.17,0,0,1,505.7,80a5.34,5.34,0,0,1-1.6,3.9,5.19,5.19,0,0,1-3.8,1.6A5,5,0,0,1,496.55,83.9Z" transform="translate(-11.4 -10.8)"/><path d="M520.69,19.4a4.91,4.91,0,0,1-1.5-3.6,4.8,4.8,0,0,1,1.5-3.5,5,5,0,0,1,3.71-1.5,5.12,5.12,0,0,1,3.7,1.45,4.65,4.65,0,0,1,1.5,3.45,5.24,5.24,0,0,1-8.91,3.7Zm.11,13h7.1V85h-7.1Z" transform="translate(-11.4 -10.8)"/><path d="M555.5,82.05a25.09,25.09,0,0,1-9.6-9.55,27.18,27.18,0,0,1-3.5-13.8,27.18,27.18,0,0,1,3.5-13.8,24.76,24.76,0,0,1,9.6-9.5,29.3,29.3,0,0,1,27.4,0,24.5,24.5,0,0,1,9.55,9.5,27.56,27.56,0,0,1,3.45,13.8,27.56,27.56,0,0,1-3.45,13.8,24.83,24.83,0,0,1-9.55,9.55,28.93,28.93,0,0,1-27.4,0Zm23.75-5.4a17.86,17.86,0,0,0,7-7.25,22.5,22.5,0,0,0,2.5-10.7A22.5,22.5,0,0,0,586.2,48a17.86,17.86,0,0,0-7-7.25,21.08,21.08,0,0,0-20.1,0,18.11,18.11,0,0,0-7,7.25,22.07,22.07,0,0,0-2.55,10.7,22.07,22.07,0,0,0,2.55,10.7,18.11,18.11,0,0,0,7,7.25,21.08,21.08,0,0,0,20.1,0Z" transform="translate(-11.4 -10.8)"/></g></g></svg>