<?xml version="1.0" standalone="no"?>
<!DOCTYPE svg PUBLIC "-//W3C//DTD SVG 20010904//EN"
 "http://www.w3.org/TR/2001/REC-SVG-20010904/DTD/svg10.dtd">
<svg version="1.0" xmlns="http://www.w3.org/2000/svg"
 width="976.000000pt" height="976.000000pt" viewBox="0 0 976.000000 976.000000"
 preserveAspectRatio="xMidYMid meet">
<metadata>
Created by potrace 1.14, written by Peter Selinger 2001-2017
</metadata>
<g transform="translate(0.000000,976.000000) scale(0.100000,-0.100000)"
fill="#000000" stroke="none">
<path d="M7651 7803 c-12 -43 -24 -86 -26 -95 -8 -31 -15 -57 -19 -75 -14 -60
-38 -152 -46 -173 -5 -14 -12 -36 -14 -50 -3 -14 -19 -77 -36 -140 -17 -63
-32 -122 -34 -130 -2 -8 -20 -76 -40 -150 -33 -127 -55 -212 -127 -490 -66
-251 -78 -299 -104 -395 -15 -55 -28 -113 -29 -129 -1 -27 1 -29 39 -30 l40
-1 31 93 c17 50 30 92 29 92 -2 0 13 46 32 103 19 56 36 109 38 117 5 21 57
187 93 295 16 50 44 137 62 195 18 58 49 159 70 225 21 66 62 194 90 285 77
246 101 322 112 352 6 15 10 28 9 30 0 2 10 33 23 71 15 43 19 67 12 68 -6 0
-50 3 -97 5 l-87 5 -21 -78z"/>
<path d="M8877 7177 c-33 -34 -138 -145 -235 -246 -229 -239 -236 -246 -442
-461 -96 -101 -209 -218 -250 -261 -41 -43 -140 -146 -220 -230 -80 -83 -162
-170 -184 -191 -38 -39 -38 -40 -19 -58 46 -42 56 -39 153 50 15 14 53 48 85
75 73 63 130 113 166 145 15 14 49 44 76 66 26 23 60 52 74 65 14 13 47 43 75
66 27 23 67 58 89 78 22 21 62 56 88 79 27 22 59 50 71 61 12 11 55 49 96 85
40 36 78 70 84 75 6 6 63 55 126 110 63 55 122 107 131 115 8 8 40 36 70 61
30 26 66 57 80 70 14 13 45 40 68 60 l42 36 -58 79 c-32 43 -65 88 -75 98 -10
11 -18 23 -18 28 0 18 -17 5 -73 -55z"/>
<path d="M1868 6125 c-2 -2 -21 -5 -43 -8 -54 -6 -88 -21 -150 -64 -86 -60
-115 -124 -94 -204 14 -51 91 -136 269 -299 178 -162 352 -344 430 -449 14
-18 37 -47 51 -64 l27 -31 17 54 c23 74 29 127 29 245 0 120 -6 167 -40 281
-38 131 -107 270 -171 341 -94 104 -108 117 -172 152 -37 20 -145 53 -153 46z"/>
<path d="M9600 5980 c-51 -17 -433 -137 -455 -144 -5 -1 -30 -8 -55 -15 -25
-6 -54 -16 -65 -21 -11 -5 -36 -13 -55 -19 -19 -5 -132 -39 -250 -76 -118 -37
-219 -68 -225 -70 -5 -1 -17 -5 -25 -8 -8 -3 -73 -23 -145 -46 -71 -22 -204
-63 -295 -91 -91 -29 -169 -53 -175 -54 -5 -1 -16 -5 -22 -9 -7 -5 -13 -6 -13
-2 0 3 -13 -1 -30 -10 l-29 -15 20 -35 c23 -39 34 -41 105 -21 46 14 232 63
264 71 8 1 44 11 80 20 63 16 78 20 120 29 11 3 24 7 28 10 5 3 22 7 38 10 16
3 65 15 109 27 44 11 90 23 102 25 12 2 34 9 48 14 14 5 25 7 25 5 0 -2 12 0
28 6 15 6 34 12 42 14 8 2 80 20 160 40 80 20 154 39 164 41 10 2 33 8 51 14
18 6 41 12 51 15 10 2 82 20 159 40 77 20 147 38 155 39 8 2 44 12 80 21 36 9
76 19 88 21 13 3 37 10 53 17 l28 12 -44 74 c-25 40 -45 77 -45 82 0 11 -3 11
-70 -11z"/>
<path d="M417 5464 c-2 -2 -22 -5 -44 -8 -122 -11 -243 -83 -305 -179 -56 -88
-82 -236 -58 -328 14 -53 73 -113 121 -124 19 -4 43 -10 54 -12 47 -11 329 -4
500 12 254 24 573 20 823 -11 23 -3 42 -3 42 1 0 4 -14 32 -31 63 -116 213
-362 412 -632 512 -67 24 -200 60 -252 67 -48 6 -214 11 -218 7z"/>
<path d="M3790 5190 c-184 -38 -352 -152 -456 -310 -35 -52 -82 -151 -88 -183
-3 -12 -5 -23 -7 -24 -5 -8 -21 -104 -24 -148 -3 -46 11 -56 62 -45 18 4 35 5
38 2 5 -6 117 -3 123 3 2 2 5 20 7 41 6 53 36 156 51 174 6 8 19 29 27 45 23
45 98 120 161 160 31 20 56 33 56 29 0 -4 6 -2 13 3 6 6 26 14 42 18 17 5 37
10 45 12 44 13 189 6 240 -12 30 -10 60 -20 65 -21 23 -4 112 -71 157 -118 43
-45 104 -147 112 -187 2 -8 6 -27 11 -43 4 -16 9 -43 10 -60 2 -17 3 -34 4
-38 0 -5 26 -7 56 -5 30 1 55 0 55 -3 0 -3 26 -4 59 -2 l58 4 -3 45 c-2 41 -6
67 -18 128 -45 221 -252 443 -486 520 -102 34 -252 40 -370 15z"/>
<path d="M6220 5203 c-208 -30 -398 -147 -513 -317 -35 -52 -82 -152 -98 -208
-13 -47 -16 -66 -23 -145 l-5 -53 48 1 c27 1 54 -2 60 -5 6 -4 11 -4 11 1 0 4
25 6 55 5 30 -2 55 0 56 5 1 4 2 19 3 33 11 131 85 265 198 357 43 35 122 72
186 87 51 12 167 13 212 3 156 -37 286 -141 347 -277 32 -70 45 -121 47 -176
0 -20 6 -31 16 -32 31 -4 114 -1 122 4 4 3 8 0 8 -6 0 -6 4 -9 8 -6 5 3 25 6
44 8 l36 2 -4 55 c-16 206 -135 416 -299 530 -85 59 -182 103 -280 126 -33 8
-196 13 -235 8z"/>
<path d="M4395 3762 c-2 -2 -27 -5 -56 -7 -71 -4 -180 -15 -199 -20 -8 -2 -31
-7 -50 -10 -94 -16 -103 -18 -200 -45 -120 -34 -207 -67 -330 -127 -63 -31
-117 -59 -120 -62 -3 -3 -21 -15 -40 -25 -42 -23 -182 -122 -242 -172 -165
-137 -336 -335 -463 -536 -98 -156 -202 -238 -321 -255 -75 -11 -108 -6 -194
25 -50 18 -57 25 -100 98 -41 70 -44 108 -12 166 23 40 24 50 14 72 -17 39
-59 52 -91 28 -13 -10 -29 -27 -35 -38 -6 -10 -14 -21 -17 -24 -22 -18 -88
-181 -106 -260 -9 -45 -9 -159 2 -208 12 -56 55 -154 79 -178 7 -6 23 -25 37
-41 35 -42 147 -119 222 -153 59 -27 141 -50 227 -64 19 -3 47 -8 62 -11 112
-22 235 -30 443 -29 170 1 340 8 340 14 0 2 27 7 75 13 149 20 416 92 537 144
21 9 43 17 49 19 37 7 299 146 400 212 181 119 281 201 443 363 120 120 138
141 197 231 190 288 212 570 59 745 -46 52 -99 91 -132 97 -35 7 -98 17 -133
21 -91 11 -338 24 -345 17z"/>
<path d="M5760 3763 c0 -4 -34 -8 -76 -7 -42 0 -101 -3 -133 -7 -31 -4 -81
-10 -111 -13 -77 -10 -132 -39 -186 -99 -82 -91 -115 -183 -109 -304 5 -118
11 -146 55 -258 18 -47 76 -155 113 -210 72 -108 270 -320 385 -412 26 -21 49
-41 52 -44 3 -3 39 -30 80 -60 163 -119 335 -215 510 -284 52 -20 104 -41 115
-45 50 -21 290 -82 365 -94 19 -3 44 -7 55 -10 22 -4 79 -12 170 -23 79 -10
492 -10 575 0 88 10 140 17 170 22 14 3 41 8 60 11 19 3 43 7 52 10 10 3 29 7
43 10 122 22 276 110 361 207 84 95 124 208 118 331 -9 180 -132 435 -205 421
-55 -11 -69 -56 -35 -119 21 -39 23 -51 15 -87 -27 -117 -96 -178 -222 -196
-63 -8 -71 -8 -122 2 -113 22 -199 99 -330 295 -45 69 -91 135 -101 147 -11
11 -34 41 -53 65 -107 134 -324 326 -486 430 -68 43 -208 122 -212 120 -2 -1
-46 18 -138 58 -33 15 -201 68 -237 75 -47 9 -109 22 -133 28 -11 3 -45 8 -75
12 -30 4 -64 9 -75 11 -11 3 -68 6 -127 8 -59 2 -112 7 -117 11 -6 3 -11 3
-11 -2z"/>
</g>
</svg>
